<?xml version="1.0" encoding="UTF-8"?>
<svg width="804px" height="1540px" viewBox="0 0 804 1540" version="1.1" xmlns="http://www.w3.org/2000/svg" xmlns:xlink="http://www.w3.org/1999/xlink">
    <title>GuitarHeadstock</title>
    <g id="Page-1" stroke="none" stroke-width="1" fill="none" fill-rule="evenodd">
        <g id="GuitarHeadstock" fill-rule="nonzero">
            <path d="M119,783.14 C119,815.989897 92.3698969,842.62 59.52,842.62 C26.6701031,842.62 0.04,815.989897 0.04,783.14 C0.04,750.290103 26.6701031,723.66 59.52,723.66 C75.2950768,723.66 90.4240476,729.926625 101.578711,741.081289 C112.733375,752.235952 119,767.364923 119,783.14 L119,783.14 Z M59.48,584.059987 C26.6353191,584.082088 0.0252831926,610.721964 0.0399998693,643.566649 C0.0547287588,676.411334 26.6886369,703.027343 59.5333244,703.019987 C92.3780118,703.012627 119,676.384688 119,643.54 C119,627.75799 112.727888,612.622955 101.564572,601.46714 C90.401255,590.311326 75.2620061,584.049387 59.48,584.059987 L59.48,584.059987 Z M59.48,444.459987 C26.6353191,444.482088 0.0252831926,471.121964 0.0399998693,503.966649 C0.0547287588,536.811334 26.6886369,563.427343 59.5333244,563.419987 C92.3780118,563.412627 119,536.784688 119,503.94 C119,488.15799 112.727888,473.022955 101.564572,461.86714 C90.401255,450.711326 75.2620061,444.449387 59.48,444.459987 L59.48,444.459987 Z M59.48,304.859987 C26.6353191,304.882088 0.0252831926,331.521964 0.0399998693,364.366649 C0.0547287588,397.211334 26.6886369,423.827343 59.5333244,423.819987 C92.3780118,423.812627 119,397.184688 119,364.34 C119,348.55799 112.727888,333.422955 101.564572,322.26714 C90.401255,311.111326 75.2620061,304.849387 59.48,304.859987 L59.48,304.859987 Z M59.48,165.259987 C26.6353191,165.282088 0.0252831926,191.921964 0.0399998693,224.766649 C0.0547287588,257.611334 26.6886369,284.227343 59.5333244,284.219987 C92.3780118,284.212627 119,257.584688 119,224.74 C119,208.95799 112.727888,193.822955 101.564572,182.66714 C90.401255,171.511326 75.2620061,165.249387 59.48,165.259987 L59.48,165.259987 Z M59.48,25.6599865 C26.6353191,25.6820879 0.0252831926,52.3219637 0.0399998693,85.1666487 C0.0547287588,118.011334 26.6886369,144.627343 59.5333244,144.619987 C92.3780118,144.612627 119,117.984688 119,85.14 C119,69.3579903 112.727888,54.2229545 101.564572,43.0671402 C90.401255,31.9113259 75.2620061,25.6493867 59.48,25.6599865 L59.48,25.6599865 Z" id="tuning_circles" fill="#CCCCCC"></path>
            <path d="M433.05,88.11 L119,88.11 L119,81.89 L433.05,81.89 L433.05,88.11 Z M401.68,221.63 L119,221.63 L119,227.85 L401.68,227.85 L401.68,221.63 Z M363.68,361.23 L119,361.23 L119,367.45 L363.7,367.45 L363.68,361.23 Z M314.78,497.72 L119,497.72 L119,503.94 L314.8,503.94 L314.78,497.72 Z M277.69,637.33 L119,637.33 L119,643.54 L277.69,643.54 L277.69,637.33 Z M225.58,780 L119,780 L119,786.22 L225.58,786.22 L225.58,780 Z" id="tuning_circle_lines" fill="#CCCCCC"></path>
            <path d="M610.51,1358 L341.24,1358 L341.24,1122.43 L610.51,1122.43 L610.51,1358 Z M610.51,1374 L341.23,1374 L341.23,1539.48 L610.51,1539.48 L610.51,1374 Z M610.51,1069.28 L341.23,1069.28 L341.23,1093.22 L610.51,1093.22 L610.51,1069.28 Z" id="_Guitar_Fretboard" fill="#666666"></path>
            <path d="M610.51,1358 L610.51,1374 L341.23,1374 L341.23,1358 M341.23,1122.45 L610.51,1122.45 L610.51,1093.18 L341.24,1093.18 L341.23,1122.45 Z" id="_Guitar_Frets" fill="#CCCCCC"></path>
            <path d="M317,770.7 L296.26,830 L273.26,822 L294,762.65 L317,770.7 Z M337.27,626.16 L316.54,685.49 L339.54,693.49 L360.27,634.16 L337.27,626.16 Z M378.65,489.67 L357.91,549 L380.91,557 L401.64,497.67 L378.65,489.67 Z M422,353.17 L401.27,412.51 L424.27,420.56 L445,361.22 L422,353.17 Z M463.67,216.68 L442.9,276 L465.9,284 L486.63,224.67 L463.67,216.68 Z M505.67,82.12 L484.94,141.46 L512.81,151.19 L533.53,91.86 L505.67,82.12 Z" id="_RearTuners_Base" fill="#999999"></path>
            <path d="M323.67,641.1 L331.13,643.71 L322.66,668 L315.2,665.39 L323.67,641.1 Z M356.59,528.85 L364.04,531.45 L372.51,507.21 L365.05,504.61 L356.59,528.85 Z M399.89,392.36 L407.35,394.96 L415.82,370.72 L408.36,368.12 L399.89,392.36 Z M441.57,255.86 L449.03,258.47 L457.49,234.23 L450,231.62 L441.57,255.86 Z M483.57,121.3 L491.02,123.91 L499.49,99.67 L492,97.06 L483.57,121.3 Z M280.37,777.59 L287.83,780.2 L279.36,804.44 L271.9,801.83 L280.37,777.59 Z" id="_RearTuners_Stem" fill="#CCCCCC"></path>
            <path d="M258.11,725.4 L294.2,738 L258.07,841.4 L222.14,828.85 L222.14,828.85 L221.98,828.79 L221.98,828.79 C209.76,824.3 207.88,797.79 217.81,769.34 C227.74,740.89 245.74,721.34 258.1,725.41 L258.11,725.4 Z M301.41,588.92 C289.04,584.83 271.05,604.42 261.11,632.84 C251.17,661.26 253.06,687.84 265.29,692.3 L265.29,692.3 L265.46,692.36 L265.46,692.36 L301.39,704.91 L337.51,601.51 L301.42,588.9 L301.41,588.92 Z M342.79,452.42 L378.88,465 L342.76,568.4 L306.83,555.85 L306.83,555.85 L306.67,555.79 L306.67,555.79 C294.45,551.29 292.56,524.79 302.5,496.33 C312.44,467.87 330.42,448.33 342.79,452.41 L342.79,452.42 Z M386.1,315.93 L422.19,328.54 L386.06,431.94 L350.13,419.38 L350.13,419.38 L349.97,419.33 L349.97,419.33 C337.74,414.83 335.86,388.33 345.79,359.87 C355.72,331.41 373.72,311.87 386.08,315.95 L386.1,315.93 Z M427.78,179.44 L463.87,192 L427.74,295.4 L391.81,282.85 L391.81,282.85 L391.65,282.79 L391.65,282.79 C379.43,278.29 377.55,251.79 387.48,223.33 C397.41,194.87 415.41,175.33 427.77,179.4 L427.78,179.44 Z M469.78,44.88 L505.87,57.48 L469.75,160.88 L433.82,148.33 L433.82,148.33 L433.66,148.27 L433.66,148.27 C421.44,143.77 419.55,117.27 429.49,88.81 C439.43,60.35 457.42,40.81 469.78,44.88 L469.78,44.88 Z" id="_RearTuners_Key" fill="#999999"></path>
            <path d="M259.12,957.85 C256.04953,947.850153 256.14033,937.146319 259.38,927.2 L523,96 C525,89.48 531.13,77.72 535,72.22 C685.08,-138.88 931.92,174.09 724.08,302.31 C693.983932,320.882185 676.310333,354.300517 677.9,389.63 C684.9,541.93 754.69,670.97 753.29,786.81 C753.08,804.03 741.29,834.01 725.69,841.43 C627.77,888.18 607.53,951.72 610.51,1069.22 L341.23,1069.22 C335.95,1019.34 298.23,1004.05 280.31,987.63 C271.62,979.67 263.18,970.7 259.12,957.85 Z" id="_Guitar_Headstock" fill="#333333"></path>
            <path d="M607.84,171 C607.84,192.196689 590.656689,209.38 569.46,209.38 C548.263311,209.38 531.08,192.196689 531.08,171 C531.08,149.803311 548.263311,132.62 569.46,132.62 C590.656689,132.62 607.84,149.803311 607.84,171 L607.84,171 Z M527.17,270.999999 C511.645829,270.999999 497.650456,280.35207 491.710548,294.69492 C485.770639,309.037771 489.056103,325.546478 500.034779,336.522294 C511.013456,347.49811 527.523018,350.779271 541.864321,344.835626 C556.205623,338.89198 565.554045,324.89417 565.550001,309.37 C565.550001,299.19191 561.506086,289.430835 554.308152,282.234777 C547.110218,275.038718 537.348089,270.997347 527.17,270.999999 L527.17,270.999999 Z M482.4,408.52 C461.203311,408.52 444.02,425.703311 444.02,446.9 C444.02,468.096689 461.203311,485.28 482.4,485.28 C503.596689,485.28 520.78,468.096689 520.78,446.9 C520.78,425.703311 503.596689,408.52 482.4,408.52 L482.4,408.52 Z M439.21,544.669999 C423.68583,544.665955 409.68802,554.014377 403.744374,568.355679 C397.800729,582.696982 401.08189,599.206544 412.057706,610.185221 C423.033522,621.163897 439.542229,624.449361 453.88508,618.509452 C468.22793,612.569544 477.58,598.574171 477.58,583.05 C477.58,561.857216 460.402783,544.675522 439.21,544.669999 L439.21,544.669999 Z M394.67,681.539999 C373.473311,681.539999 356.29,698.723311 356.29,719.92 C356.29,741.116689 373.473311,758.3 394.67,758.3 C415.866689,758.3 433.050001,741.116689 433.050001,719.92 C433.052653,709.740178 429.00991,699.976533 421.811688,692.778312 C414.613467,685.58009 404.849822,681.537347 394.67,681.539999 L394.67,681.539999 Z M352.17,819.69 C330.973311,819.69 313.79,836.873311 313.79,858.07 C313.79,879.266689 330.973311,896.45 352.17,896.45 C373.366689,896.45 390.55,879.266689 390.55,858.07 C390.54448,836.875598 373.364402,819.69552 352.17,819.69 Z" id="_FrontTuners_Base" fill="#999999"></path>
            <path d="M583.23,147.18 L555.69,147.18 L541.92,171 L555.69,194.85 L583.23,194.85 L597,171 L583.23,147.18 Z M541,285.52 L513.4,285.52 L499.63,309.37 L513.4,333.23 L541,333.23 L554.77,309.37 L541,285.52 Z M496.17,423.05 L468.63,423.05 L454.86,446.9 L468.63,470.75 L496.17,470.75 L510,446.9 L496.17,423.05 Z M453,559.19 L425.43,559.19 L411.66,583.05 L425.43,606.9 L453,606.9 L466.77,583.05 L453,559.19 Z M408.45,696.06 L380.9,696.06 L367.13,719.92 L380.9,743.77 L408.45,743.77 L422.22,719.92 L408.45,696.06 Z M365,835.22 L337.4,835.22 L323.63,859.07 L337.4,882.93 L365,882.93 L378.77,859.07 L365,835.22 Z" id="_FrontTuners_Bolt" fill="#CCCCCC"></path>
            <path d="M588.08,174.88 L588.08,1539.42 L586.34,1539.42 L586.34,174.88 L588.08,174.88 Z M544.08,308.88 L542.33,308.88 L542.33,1539.42 L544.08,1539.42 L544.08,308.88 Z M501,445.94 L498.62,445.94 L498.62,1539.42 L501,1539.42 L501,445.94 Z M456.2,579.46 L453.41,579.46 L453.41,1539.46 L456.2,1539.46 L456.2,579.46 Z M412.84,718.46 L409.84,718.46 L409.84,1539.39 L412.84,1539.39 L412.84,718.46 Z M369.3,856.66 L365.13,856.66 L365.13,1539.42 L369.3,1539.42 L369.3,856.66 Z" id="_Guitar_Strings" fill="#FFFFFF"></path>
            <path d="M592.55,743.77 L538.55,743.77 C537.009126,743.77 535.76,742.520874 535.76,740.98 L535.76,713.53 C535.76,711.989126 537.009126,710.74 538.55,710.74 L592.55,710.74 C594.090874,710.74 595.34,711.989126 595.34,713.53 L595.34,741 C595.32901,742.533058 594.083098,743.77 592.55,743.77 L592.55,743.77 Z" id="_StringTree_Base" fill="#999999"></path>
            <path d="M566.54,713.27 C558.808014,713.27 552.54,719.538014 552.54,727.27 C552.54,735.001986 558.808014,741.27 566.54,741.27 C574.271986,741.27 580.54,735.001986 580.54,727.27 C580.54,719.538014 574.271986,713.27 566.54,713.27 Z M567.54,728.27 L567.54,739.8 L565.54,739.8 L565.54,728.25 L554,728.25 L554,726.25 L565.53,726.25 L565.53,714.73 L567.53,714.73 L567.53,726.26 L579.05,726.26 L579.05,728.26 L567.54,728.27 Z" id="_StringTree_Bolt" fill="#CCCCCC"></path>
            <path d="M570,189.650003 C562.666191,189.654045 556.052267,185.239378 553.242936,178.464983 C550.433605,171.690587 551.982262,163.890911 557.166618,158.703694 C562.350974,153.516476 570.149794,151.963517 576.925739,154.769109 C583.701683,157.574702 588.12,164.18619 588.12,171.52 C588.12,181.529019 580.009017,189.644479 570,189.650003 L570,189.650003 Z M527.66,328 C517.647077,328 509.53,319.882923 509.53,309.87 C509.53,299.857077 517.647077,291.74 527.66,291.74 C537.672923,291.74 545.79,299.857077 545.79,309.87 C545.79,319.882923 537.672923,328 527.66,328 Z M482.89,465.510011 C475.554375,465.518091 468.936751,461.10491 466.124855,454.329609 C463.312959,447.554309 464.860977,439.752209 470.046619,434.563704 C475.23226,429.375199 483.033504,427.822874 489.810356,430.631029 C496.587208,433.439185 501.004042,440.054372 501.000003,447.39 C500.99449,457.391213 492.891208,465.498969 482.89,465.510011 L482.89,465.510011 Z M439.69,601.660003 C432.35619,601.660003 425.744702,597.241683 422.939109,590.465739 C420.133517,583.689794 421.686476,575.890974 426.873694,570.706618 C432.060911,565.522262 439.860587,563.973605 446.634983,566.782936 C453.409378,569.592267 457.824045,576.206191 457.820003,583.54 C457.820003,588.347456 455.909562,592.957865 452.50924,596.356312 C449.108918,599.754758 444.497455,601.662653 439.69,601.660003 Z M395.16,738.53 C385.147077,738.53 377.03,730.412923 377.03,720.4 C377.03,710.387077 385.147077,702.27 395.16,702.27 C405.172923,702.27 413.29,710.387077 413.29,720.4 C413.29,730.412923 405.172923,738.53 395.16,738.53 Z M351.16,877.68 C343.82619,877.68 337.214702,873.261683 334.409109,866.485739 C331.603517,859.709794 333.156476,851.910974 338.343694,846.726618 C343.530911,841.542262 351.330587,839.993605 358.104983,842.802936 C364.879378,845.612267 369.294045,852.226191 369.290003,859.56 C369.290003,869.5674 361.1774,877.68 351.17,877.68 L351.16,877.68 Z" id="_FrontTuners_Peg" fill="#999999"></path>
        </g>
    </g>
</svg>