<?xml version="1.0" encoding="UTF-8"?>
<svg width="804px" height="1540px" viewBox="0 0 804 1540" version="1.1" xmlns="http://www.w3.org/2000/svg" xmlns:xlink="http://www.w3.org/1999/xlink">
    <title>GuitarHeadstock</title>
    <g id="Page-1" stroke="none" stroke-width="1" fill="none" fill-rule="evenodd">
        <g id="GuitarHeadstock" fill-rule="nonzero">
            <path d="M610.51,1358 L341.24,1358 L341.24,1122.43 L610.51,1122.43 L610.51,1358 Z M610.51,1374 L341.23,1374 L341.23,1539.48 L610.51,1539.48 L610.51,1374 Z M610.51,1069.28 L341.23,1069.28 L341.23,1093.22 L610.51,1093.22 L610.51,1069.28 Z" id="_Guitar_Fretboard" fill="#666666"></path>
            <path d="M259.12,957.85 C256.04953,947.850153 256.14033,937.146319 259.38,927.2 L523,96 C525,89.48 531.13,77.72 535,72.22 C685.08,-138.88 931.92,174.09 724.08,302.31 C693.983932,320.882185 676.310333,354.300517 677.9,389.63 C684.9,541.93 754.69,670.97 753.29,786.81 C753.08,804.03 741.29,834.01 725.69,841.43 C627.77,888.18 607.53,951.72 610.51,1069.22 L341.23,1069.22 C335.95,1019.34 298.23,1004.05 280.31,987.63 C271.62,979.67 263.18,970.7 259.12,957.85 Z" id="_Guitar_Headstock" fill="#000000"></path>
            <path d="M610.51,1358 L610.51,1374 L341.23,1374 L341.23,1358 M341.23,1122.45 L610.51,1122.45 L610.51,1093.18 L341.24,1093.18 L341.23,1122.45 Z" id="_Guitar_Frets" fill="#CCCCCC"></path>
            <path d="M592.55,743.77 L538.55,743.77 C537.009126,743.77 535.76,742.520874 535.76,740.98 L535.76,713.53 C535.76,711.989126 537.009126,710.74 538.55,710.74 L592.55,710.74 C594.090874,710.74 595.34,711.989126 595.34,713.53 L595.34,741 C595.32901,742.533058 594.083098,743.77 592.55,743.77 L592.55,743.77 Z" id="_StringTree_Base" fill="#999999"></path>
            <path d="M566.54,713.27 C558.808014,713.27 552.54,719.538014 552.54,727.27 C552.54,735.001986 558.808014,741.27 566.54,741.27 C574.271986,741.27 580.54,735.001986 580.54,727.27 C580.54,719.538014 574.271986,713.27 566.54,713.27 Z M567.54,728.27 L567.54,739.8 L565.54,739.8 L565.54,728.25 L554,728.25 L554,726.25 L565.53,726.25 L565.53,714.73 L567.53,714.73 L567.53,726.26 L579.05,726.26 L579.05,728.26 L567.54,728.27 Z" id="_StringTree_Bolt" fill="#CCCCCC"></path>
            <path d="M506.19,148.9 L484.89,141.46 L505.62,82.12 L525.62,89.12 C524.61116,91.3594125 523.736285,93.6567949 523,96 L506.19,148.9 Z M353.09,631.69 L337.26,626.16 L316.53,685.49 L334.08,691.63 L353.09,631.69 Z M396.18,495.8 L378.64,489.67 L357.91,549 L377.18,555.73 L396.18,495.8 Z M439.47,359.3 L422,353.17 L401.27,412.51 L420.51,419.23 L439.47,359.3 Z M482.59,223.3 L463.59,216.67 L442.9,276 L463.58,283.22 L482.59,223.3 Z M309.81,768.19 L294,762.65 L273.23,822 L290.8,828.14 L309.81,768.19 Z" id="_RearTuner_Attachments" fill="#999999"></path>
            <path d="M469.16,44.88 L505.25,57.48 L469.12,160.88 L433.19,148.33 L433.19,148.33 L433.03,148.27 L433.03,148.27 C420.8,143.77 418.92,117.27 428.85,88.81 C438.78,60.35 456.78,40.81 469.14,44.88 L469.16,44.88 Z M426.86,179.44 L463,192 L426.88,295.4 L390.9,282.89 L390.9,282.89 L390.73,282.83 L390.73,282.83 C378.5,278.33 376.62,251.83 386.55,223.37 C396.48,194.91 414.48,175.37 426.85,179.44 L426.86,179.44 Z M385.09,315.93 L421.18,328.54 L385.05,431.94 L349.12,419.38 L349.12,419.38 L348.96,419.33 L348.96,419.33 C336.74,414.83 334.86,388.33 344.79,359.87 C354.72,331.41 372.72,311.87 385.08,315.95 L385.09,315.93 Z M342.79,452.42 L378.88,465 L342.76,568.4 L306.83,555.85 L306.83,555.85 L306.67,555.79 L306.67,555.79 C294.45,551.29 292.56,524.79 302.5,496.33 C312.44,467.87 330.42,448.33 342.79,452.41 L342.79,452.42 Z M301.41,588.92 C289.04,584.83 271.05,604.42 261.11,632.84 C251.17,661.26 253.06,687.84 265.29,692.3 L265.29,692.3 L265.46,692.36 L265.46,692.36 L301.39,704.91 L337.51,601.51 L301.42,588.9 L301.41,588.92 Z M258.11,725.4 L294.2,738 L258.07,841.4 L222.14,828.85 L222.14,828.85 L221.98,828.79 L221.98,828.79 C209.76,824.3 207.88,797.79 217.81,769.34 C227.74,740.89 245.74,721.34 258.1,725.41 L258.11,725.4 Z" id="_RearTuner_Keys" fill="#999999"></path>
            <path d="M607.84,171 C607.84,192.196689 590.656689,209.38 569.46,209.38 C548.263311,209.38 531.08,192.196689 531.08,171 C531.08,149.803311 548.263311,132.62 569.46,132.62 C590.656689,132.62 607.84,149.803311 607.84,171 L607.84,171 Z M527.17,270.999999 C511.645829,270.999999 497.650456,280.35207 491.710548,294.69492 C485.770639,309.037771 489.056103,325.546478 500.034779,336.522294 C511.013456,347.49811 527.523018,350.779271 541.864321,344.835626 C556.205623,338.89198 565.554045,324.89417 565.550001,309.37 C565.550001,299.19191 561.506086,289.430835 554.308152,282.234777 C547.110218,275.038718 537.348089,270.997347 527.17,270.999999 L527.17,270.999999 Z M482.4,408.52 C461.203311,408.52 444.02,425.703311 444.02,446.9 C444.02,468.096689 461.203311,485.28 482.4,485.28 C503.596689,485.28 520.78,468.096689 520.78,446.9 C520.78,425.703311 503.596689,408.52 482.4,408.52 L482.4,408.52 Z M439.21,544.669999 C423.68583,544.665955 409.68802,554.014377 403.744374,568.355679 C397.800729,582.696982 401.08189,599.206544 412.057706,610.185221 C423.033522,621.163897 439.542229,624.449361 453.88508,618.509452 C468.22793,612.569544 477.58,598.574171 477.58,583.05 C477.58,561.857216 460.402783,544.675522 439.21,544.669999 L439.21,544.669999 Z M394.67,681.539999 C373.473311,681.539999 356.29,698.723311 356.29,719.92 C356.29,741.116689 373.473311,758.3 394.67,758.3 C415.866689,758.3 433.050001,741.116689 433.050001,719.92 C433.052653,709.740178 429.00991,699.976533 421.811688,692.778312 C414.613467,685.58009 404.849822,681.537347 394.67,681.539999 L394.67,681.539999 Z M352.17,819.69 C330.973311,819.69 313.79,836.873311 313.79,858.07 C313.79,879.266689 330.973311,896.45 352.17,896.45 C373.366689,896.45 390.55,879.266689 390.55,858.07 C390.54448,836.875598 373.364402,819.69552 352.17,819.69 Z" id="_FrontTuner_Base" fill="#999999"></path>
            <path d="M323.67,641.1 L331.13,643.71 L322.66,668 L315.2,665.39 L323.67,641.1 Z M356.59,528.85 L364.04,531.45 L372.51,507.21 L365.05,504.61 L356.59,528.85 Z M399,392 L407.36,394.92 L415.83,370.68 L407.47,367.76 L399,392 Z M440.76,255.54 L449.04,258.43 L457.5,234.19 L449.23,231.3 L440.76,255.54 Z M483,121.11 L491,123.91 L499.47,99.67 L491.47,96.87 L483,121.11 Z M280.37,777.59 L287.83,780.2 L279.36,804.44 L271.9,801.83 L280.37,777.59 Z" id="_FrontTuner_Stems" fill="#CCCCCC"></path>
            <path d="M468.63,423.05 L454.86,446.9 L468.63,470.75 L496.17,470.75 L510,446.9 L496.22,423.05 L468.63,423.05 Z M482.9,465.510025 C475.563472,465.522139 468.942781,461.111528 466.127732,454.336553 C463.312684,447.561577 464.858229,439.757839 470.04308,434.56726 C475.22793,429.37668 483.029957,427.822517 489.808037,430.630082 C496.586117,433.437647 501.004037,440.053463 501.000003,447.39 C500.994499,457.387314 492.897302,465.493459 482.9,465.510025 L482.9,465.510025 Z M583.23,147.18 L555.69,147.18 L541.92,171 L555.69,194.85 L583.23,194.85 L597,171 L583.23,147.18 Z M570,189.650003 C562.666191,189.654045 556.052267,185.239378 553.242936,178.464983 C550.433605,171.690587 551.982262,163.890911 557.166618,158.703694 C562.350974,153.516476 570.149794,151.963517 576.925739,154.769109 C583.701683,157.574702 588.12,164.18619 588.12,171.52 C588.12,181.529019 580.009017,189.644479 570,189.650003 L570,189.650003 Z M425.43,559.19 L411.66,583.05 L425.43,606.9 L453,606.9 L466.77,583.05 L453,559.19 L425.43,559.19 Z M439.7,601.660003 C432.36619,601.660003 425.754702,597.241683 422.949109,590.465739 C420.143517,583.689794 421.696476,575.890974 426.883694,570.706618 C432.070911,565.522262 439.870587,563.973605 446.644983,566.782936 C453.419378,569.592267 457.834045,576.206191 457.830003,583.54 C457.830003,588.347456 455.919562,592.957865 452.51924,596.356312 C449.118918,599.754758 444.507455,601.662653 439.7,601.660003 L439.7,601.660003 Z M380.9,696.06 L367.13,719.92 L380.9,743.77 L408.45,743.77 L422.22,719.92 L408.45,696.06 L380.9,696.06 Z M395.17,738.53 C385.157077,738.53 377.04,730.412923 377.04,720.4 C377.04,710.387077 385.157077,702.27 395.17,702.27 C405.182923,702.27 413.3,710.387077 413.3,720.4 C413.3,730.412923 405.182923,738.53 395.17,738.53 L395.17,738.53 Z M513.4,285.53 L499.63,309.38 L513.4,333.24 L541,333.24 L554.77,309.38 L541,285.52 L513.4,285.53 Z M527.67,328 C517.657077,328 509.54,319.882923 509.54,309.87 C509.54,299.857077 517.657077,291.74 527.67,291.74 C537.682923,291.74 545.8,299.857077 545.8,309.87 C545.8,319.882923 537.682923,328 527.67,328 Z M337.4,835.22 L323.63,859.07 L337.4,882.93 L365,882.93 L378.77,859.07 L365,835.22 L337.4,835.22 Z M351.18,877.680003 C343.84619,877.680003 337.234702,873.261683 334.429109,866.485739 C331.623517,859.709794 333.176476,851.910974 338.363694,846.726618 C343.550911,841.542262 351.350587,839.993605 358.124983,842.802936 C364.899378,845.612267 369.314045,852.226191 369.310003,859.56 C369.310003,864.367456 367.399562,868.977865 363.99924,872.376312 C360.598918,875.774758 355.987455,877.682653 351.18,877.680003 L351.18,877.680003 Z" id="_FrontTuner_Bolts" fill="#CCCCCC"></path>
            <path d="M570,189.650003 C562.666191,189.654045 556.052267,185.239378 553.242936,178.464983 C550.433605,171.690587 551.982262,163.890911 557.166618,158.703694 C562.350974,153.516476 570.149794,151.963517 576.925739,154.769109 C583.701683,157.574702 588.12,164.18619 588.12,171.52 C588.12,181.529019 580.009017,189.644479 570,189.650003 L570,189.650003 Z M527.66,328 C517.647077,328 509.53,319.882923 509.53,309.87 C509.53,299.857077 517.647077,291.74 527.66,291.74 C537.672923,291.74 545.79,299.857077 545.79,309.87 C545.79,319.882923 537.672923,328 527.66,328 Z M482.89,465.510011 C475.554375,465.518091 468.936751,461.10491 466.124855,454.329609 C463.312959,447.554309 464.860977,439.752209 470.046619,434.563704 C475.23226,429.375199 483.033504,427.822874 489.810356,430.631029 C496.587208,433.439185 501.004042,440.054372 501.000003,447.39 C500.99449,457.391213 492.891208,465.498969 482.89,465.510011 L482.89,465.510011 Z M439.69,601.660003 C432.35619,601.660003 425.744702,597.241683 422.939109,590.465739 C420.133517,583.689794 421.686476,575.890974 426.873694,570.706618 C432.060911,565.522262 439.860587,563.973605 446.634983,566.782936 C453.409378,569.592267 457.824045,576.206191 457.820003,583.54 C457.820003,588.347456 455.909562,592.957865 452.50924,596.356312 C449.108918,599.754758 444.497455,601.662653 439.69,601.660003 Z M395.16,738.53 C385.147077,738.53 377.03,730.412923 377.03,720.4 C377.03,710.387077 385.147077,702.27 395.16,702.27 C405.172923,702.27 413.29,710.387077 413.29,720.4 C413.29,730.412923 405.172923,738.53 395.16,738.53 Z M351.16,877.68 C343.82619,877.68 337.214702,873.261683 334.409109,866.485739 C331.603517,859.709794 333.156476,851.910974 338.343694,846.726618 C343.530911,841.542262 351.330587,839.993605 358.104983,842.802936 C364.879378,845.612267 369.294045,852.226191 369.290003,859.56 C369.290003,869.5674 361.1774,877.68 351.17,877.68 L351.16,877.68 Z" id="_FrontTuner_Pegs" fill="#999999"></path>
            <path d="M542.33,710.74 L542.33,320.48 C543.006718,319.537479 543.592667,318.532996 544.08,317.48 L544.08,710.74 L542.33,710.74 Z M409.83,1539.42 L412.83,1539.42 L412.83,724.35 C412.296979,726.755203 411.275906,729.02539 409.83,731.02 L409.83,1539.42 Z M365.13,1539.42 L369.300024,1539.42 L369.300024,859.56 C369.306816,863.779772 367.830875,867.86781 365.13,871.11 L365.13,1539.42 Z M588.13,710.74 L588.13,174.88 L587.8,174.88 C587.513646,176.376804 587.039919,177.831585 586.39,179.21 L586.39,710.74 L588.13,710.74 Z M542.38,743.74 L542.38,1539.39 L544.13,1539.39 L544.13,743.77 L542.38,743.74 Z M453.46,1539.39 L456.25,1539.39 L456.25,591 C455.526515,592.578653 454.587569,594.049332 453.46,595.37 L453.46,1539.39 Z M586.34,743.77 L586.34,1539.42 L588.08,1539.42 L588.08,743.77 L586.34,743.77 Z M498.62,456.36 L498.62,1539.42 L501,1539.42 L501,448.84 L500.94,448.84 C500.730808,451.487105 499.938542,454.055141 498.62,456.36 Z" id="_GuitarStrings_" fill="#FFFFFF"></path>
            <path d="M431.52,81.89 C430.68,83.89 429.88,85.9633333 429.12,88.11 L118.88,88.11 C118.93,87.11 118.96,86.11 118.96,85.11 C118.96,84.11 118.96,82.94 118.87,81.86 L431.52,81.86 L431.52,81.89 Z M118.88,221.63 C118.93,222.63 118.96,223.7 118.96,224.74 C118.96,225.78 118.96,226.82 118.88,227.85 L385.08,227.85 C385.54,226.36 386.02,224.85 386.55,223.37 C386.75,222.78 386.97,222.21 387.18,221.63 L118.88,221.63 L118.88,221.63 Z M118.88,361.23 C118.93,362.23 118.96,363.3 118.96,364.34 C118.96,365.38 118.96,366.42 118.88,367.45 L342.39,367.45 C342.97,365.39 343.61,363.316667 344.31,361.23 L118.88,361.23 Z M118.88,500.57 C118.94,501.68 118.98,502.81 118.98,503.94 C118.98,505.07 118.98,506.2 118.88,507.32 L299.13,507.32 C299.69,505.09 300.33,502.84 301.03,500.57 L118.86,500.57 L118.88,500.57 Z M118.88,640.43 C118.93,641.43 118.96,642.5 118.96,643.54 C118.96,644.58 118.96,645.62 118.88,646.65 L257.17,646.65 C257.623333,644.603333 258.143333,642.53 258.73,640.43 L118.88,640.43 Z M118.88,780.03 C118.93,781.03 118.96,782.1 118.96,783.14 C118.96,784.18 118.96,785.22 118.88,786.25 L213.22,786.25 C213.613333,784.21 214.073333,782.136667 214.6,780.03 L118.88,780.03 Z" id="_Misc_TunerLines" fill="#CCCCCC"></path>
            <path d="M119,783.14 C119,815.989897 92.3698969,842.62 59.52,842.62 C26.6701031,842.62 0.04,815.989897 0.04,783.14 C0.04,750.290103 26.6701031,723.66 59.52,723.66 C75.2950768,723.66 90.4240476,729.926625 101.578711,741.081289 C112.733375,752.235952 119,767.364923 119,783.14 L119,783.14 Z M59.48,584.059987 C26.6353191,584.082088 0.0252831926,610.721964 0.0399998693,643.566649 C0.0547287588,676.411334 26.6886369,703.027343 59.5333244,703.019987 C92.3780118,703.012627 119,676.384688 119,643.54 C119,627.75799 112.727888,612.622955 101.564572,601.46714 C90.401255,590.311326 75.2620061,584.049387 59.48,584.059987 L59.48,584.059987 Z M59.48,444.459987 C26.6353191,444.482088 0.0252831926,471.121964 0.0399998693,503.966649 C0.0547287588,536.811334 26.6886369,563.427343 59.5333244,563.419987 C92.3780118,563.412627 119,536.784688 119,503.94 C119,488.15799 112.727888,473.022955 101.564572,461.86714 C90.401255,450.711326 75.2620061,444.449387 59.48,444.459987 L59.48,444.459987 Z M59.48,304.859987 C26.6353191,304.882088 0.0252831926,331.521964 0.0399998693,364.366649 C0.0547287588,397.211334 26.6886369,423.827343 59.5333244,423.819987 C92.3780118,423.812627 119,397.184688 119,364.34 C119,348.55799 112.727888,333.422955 101.564572,322.26714 C90.401255,311.111326 75.2620061,304.849387 59.48,304.859987 L59.48,304.859987 Z M59.48,165.259987 C26.6353191,165.282088 0.0252831926,191.921964 0.0399998693,224.766649 C0.0547287588,257.611334 26.6886369,284.227343 59.5333244,284.219987 C92.3780118,284.212627 119,257.584688 119,224.74 C119,208.95799 112.727888,193.822955 101.564572,182.66714 C90.401255,171.511326 75.2620061,165.249387 59.48,165.259987 L59.48,165.259987 Z M59.48,25.6599865 C26.6353191,25.6820879 0.0252831926,52.3219637 0.0399998693,85.1666487 C0.0547287588,118.011334 26.6886369,144.627343 59.5333244,144.619987 C92.3780118,144.612627 119,117.984688 119,85.14 C119,69.3579903 112.727888,54.2229545 101.564572,43.0671402 C90.401255,31.9113259 75.2620061,25.6493867 59.48,25.6599865 L59.48,25.6599865 Z" id="_Misc_TunerCircles" fill="#CCCCCC"></path>
        </g>
    </g>
</svg>