<?xml version="1.0" encoding="UTF-8"?>
<svg width="593px" height="1540px" viewBox="0 0 593 1540" version="1.1" xmlns="http://www.w3.org/2000/svg" xmlns:xlink="http://www.w3.org/1999/xlink">
    <title>GuitarHeadstock</title>
    <g id="Page-1" stroke="none" stroke-width="1" fill="none" fill-rule="evenodd">
        <g id="GuitarHeadstock" fill-rule="nonzero">
            <path d="M399.08,1358 L129.81,1358 L129.81,1122.43 L399.08,1122.43 L399.08,1358 Z M399.08,1374 L129.8,1374 L129.8,1539.47 L399.08,1539.47 L399.08,1374 Z M399.08,1069.28 L129.8,1069.28 L129.8,1093.22 L399.08,1093.22 L399.08,1069.28 Z" id="_Guitar_Fretboard" fill="#666666"></path>
            <path d="M399.08,1358 L399.08,1374 L129.8,1374 L129.8,1358 M129.8,1122.45 L399.08,1122.45 L399.08,1093.18 L129.81,1093.18 L129.8,1122.45 Z" id="_Guitar_Frets" fill="#CCCCCC"></path>
            <path d="M105.56,770.7 L84.83,830 L61.83,822 L82.56,762.67 L105.56,770.7 Z M125.83,626.16 L105.15,685.49 L128.15,693.49 L148.88,634.16 L125.83,626.16 Z M167.21,489.67 L146.48,549 L169.48,557 L190.21,497.67 L167.21,489.67 Z M210.52,353.17 L189.79,412.51 L212.79,420.56 L233.52,361.22 L210.52,353.17 Z M252.2,216.68 L231.47,276 L254.47,284 L275.2,224.67 L252.2,216.68 Z M294.15,82.12 L273.42,141.46 L301.29,151.19 L322.02,91.86 L294.15,82.12 Z" id="_RearTuners_Base" fill="#999999"></path>
            <path d="M112.24,641.1 L119.7,643.71 L111.23,668 L103.77,665.39 L112.24,641.1 Z M145.15,528.85 L152.6,531.45 L161.07,507.21 L153.61,504.61 L145.15,528.85 Z M188.45,392.36 L195.91,394.96 L204.38,370.72 L196.92,368.12 L188.45,392.36 Z M230.15,255.86 L237.61,258.47 L246.08,234.23 L238.62,231.62 L230.15,255.86 Z M272.15,121.3 L279.6,123.91 L288.07,99.67 L280.62,97.06 L272.15,121.3 Z M68.94,777.59 L76.4,780.2 L67.93,804.44 L60.47,801.83 L68.94,777.59 Z" id="_RearTuners_Stem" fill="#CCCCCC"></path>
            <path d="M46.68,725.4 L82.77,738 L46.64,841.41 L10.71,828.86 L10.71,828.86 L10.55,828.8 L10.55,828.8 C-1.68,824.31 -3.56,797.8 6.37,769.35 C16.3,740.9 34.3,721.35 46.66,725.42 L46.68,725.4 Z M89.98,588.92 C77.61,584.83 59.62,604.42 49.68,632.84 C39.74,661.26 41.68,687.84 53.86,692.3 L53.86,692.3 L54.02,692.36 L54.02,692.36 L89.95,704.91 L126.07,601.51 L89.98,588.9 L89.98,588.92 Z M131.36,452.42 L167.45,465 L131.33,568.4 L95.4,555.84 L95.4,555.84 L95.24,555.84 L95.24,555.84 C83.02,551.34 81.13,524.84 91.07,496.38 C101.01,467.92 118.99,448.38 131.36,452.46 L131.36,452.42 Z M174.67,315.93 L210.76,328.54 L174.63,431.94 L138.7,419.38 L138.7,419.38 L138.54,419.33 L138.54,419.33 C126.31,414.83 124.43,388.33 134.36,359.87 C144.29,331.41 162.29,311.87 174.65,315.95 L174.67,315.93 Z M216.35,179.43 L252.44,192 L216.31,295.4 L180.38,282.85 L180.38,282.85 L180.22,282.79 L180.22,282.79 C168,278.3 166.12,251.79 176.05,223.34 C185.98,194.89 203.98,175.34 216.34,179.41 L216.35,179.43 Z M258.35,44.87 L294.44,57.48 L258.32,160.88 L222.39,148.33 L222.39,148.33 L222.23,148.27 L222.23,148.27 C210.01,143.78 208.13,117.27 218.06,88.82 C227.99,60.37 245.99,40.82 258.35,44.89 L258.35,44.87 Z" id="_RearTuners_Key" fill="#999999"></path>
            <path d="M47.69,957.85 C44.6195303,947.850153 44.7103296,937.146319 47.95,927.2 L311.52,96 C313.52,89.48 319.65,77.72 323.57,72.22 C473.65,-138.88 720.49,174.09 512.65,302.31 C482.553932,320.882185 464.880333,354.300517 466.47,389.63 C473.42,541.93 543.26,670.97 541.86,786.81 C541.65,804.03 529.81,834.01 514.26,841.43 C416.34,888.18 396.15,951.72 399.08,1069.22 L129.8,1069.22 C124.52,1019.34 86.8,1004.05 68.88,987.63 C60.15,979.67 51.75,970.7 47.69,957.85 Z" id="_Guitar_Headstock" fill="#333333"></path>
            <path d="M396.41,171 C396.41,192.196689 379.226689,209.38 358.03,209.38 C336.833311,209.38 319.65,192.196689 319.65,171 C319.65,149.803311 336.833311,132.62 358.03,132.62 C379.226689,132.62 396.41,149.803311 396.41,171 L396.41,171 Z M315.75,270.999988 C294.554617,271.011046 277.380801,288.201276 277.390001,309.396661 C277.399209,330.592045 294.587947,347.767354 315.783332,347.759995 C336.978716,347.752631 354.15552,330.565385 354.150001,309.37 C354.150001,299.188443 350.103343,289.424335 342.901083,282.227701 C335.698822,275.031067 325.931554,270.992039 315.75,270.999988 Z M270.97,408.52 C249.773311,408.52 232.59,425.703311 232.59,446.9 C232.59,468.096689 249.773311,485.28 270.97,485.28 C292.166689,485.28 309.35,468.096689 309.35,446.9 C309.35,425.703311 292.166689,408.52 270.97,408.52 L270.97,408.52 Z M227.78,544.669999 C212.25583,544.665955 198.25802,554.014377 192.314374,568.355679 C186.370729,582.696982 189.65189,599.206544 200.627706,610.185221 C211.603522,621.163897 228.112229,624.449361 242.45508,618.509452 C256.79793,612.569544 266.15,598.574171 266.15,583.05 C266.15,561.857216 248.972783,544.675522 227.78,544.669999 L227.78,544.669999 Z M183.24,681.539999 C167.716739,681.539999 153.721998,690.890987 147.781504,705.23261 C141.841009,719.574233 145.124639,736.082155 156.101242,747.058758 C167.077845,758.035361 183.585767,761.318991 197.92739,755.378496 C212.269013,749.438002 221.620001,735.443261 221.620001,719.92 C221.622653,709.740178 217.57991,699.976533 210.381688,692.778312 C203.183467,685.58009 193.419822,681.537347 183.24,681.539999 L183.24,681.539999 Z M140.74,819.689988 C119.547224,819.706565 102.378964,836.897205 102.39,858.089984 C102.401047,879.282764 119.587211,896.455504 140.779992,896.449988 C161.972774,896.444469 179.15,879.262782 179.15,858.07 C179.15,847.885791 175.10229,838.119139 167.898154,830.92063 C160.694018,823.72212 150.924206,819.682039 140.74,819.689988 L140.74,819.689988 Z" id="_FrontTuners_Base" fill="#999999"></path>
            <path d="M371.8,147.18 L344.26,147.18 L330.49,171 L344.26,194.85 L371.8,194.85 L385.58,171 L371.8,147.18 Z M329.52,285.52 L301.97,285.52 L288.2,309.37 L301.97,333.23 L329.52,333.23 L343.29,309.37 L329.52,285.52 Z M284.74,423.05 L257.2,423.05 L243.43,446.9 L257.2,470.75 L284.74,470.75 L298.52,446.9 L284.74,423.05 Z M241.55,559.19 L214,559.19 L200.23,583.05 L214,606.9 L241.55,606.9 L255.32,583.05 L241.55,559.19 Z M197.02,696.06 L169.47,696.06 L155.7,719.92 L169.47,743.77 L197.02,743.77 L210.79,719.92 L197.02,696.06 Z M153.52,835.22 L125.97,835.22 L112.2,859.07 L125.97,882.93 L153.52,882.93 L167.29,859.07 L153.52,835.22 Z" id="_FrontTuners_Bolt" fill="#CCCCCC"></path>
            <path d="M376.65,174.88 L376.65,1539.42 L374.91,1539.42 L374.91,174.88 L376.65,174.88 Z M332.65,308.88 L330.9,308.88 L330.9,1539.42 L332.65,1539.42 L332.65,308.88 Z M289.57,445.88 L287.15,445.88 L287.15,1539.42 L289.53,1539.42 L289.57,445.88 Z M244.77,579.39 L241.98,579.39 L241.98,1539.39 L244.77,1539.39 L244.77,579.39 Z M201.41,718.39 L198.41,718.39 L198.41,1539.33 L201.41,1539.33 L201.41,718.39 Z M157.87,856.66 L153.71,856.66 L153.71,1539.42 L157.87,1539.42 L157.87,856.66 Z" id="_Guitar_Strings" fill="#FFFFFF"></path>
            <path d="M381.15,743.77 L327.15,743.77 C325.609126,743.77 324.36,742.520874 324.36,740.98 L324.36,713.53 C324.36,711.989126 325.609126,710.74 327.15,710.74 L381.15,710.74 C382.690874,710.74 383.94,711.989126 383.94,713.53 L383.94,741 C383.92901,742.533058 382.683098,743.77 381.15,743.77 L381.15,743.77 Z" id="_StringTree_Base" fill="#999999"></path>
            <path d="M355.15,713.27 C347.418014,713.27 341.15,719.538014 341.15,727.27 C341.15,735.001986 347.418014,741.27 355.15,741.27 C362.881986,741.27 369.15,735.001986 369.15,727.27 C369.15,719.538014 362.881986,713.27 355.15,713.27 Z M356.15,728.27 L356.15,739.8 L354.15,739.8 L354.15,728.25 L342.58,728.25 L342.58,726.25 L354.15,726.25 L354.15,714.73 L356.15,714.73 L356.15,726.26 L367.67,726.26 L367.67,728.26 L356.15,728.27 Z" id="_StringTree_Bolt" fill="#CCCCCC"></path>
            <path d="M358.52,189.650003 C351.186191,189.654045 344.572267,185.239378 341.762936,178.464983 C338.953605,171.690587 340.502262,163.890911 345.686618,158.703694 C350.870974,153.516476 358.669794,151.963517 365.445739,154.769109 C372.221683,157.574702 376.64,164.18619 376.64,171.52 C376.64,181.529019 368.529017,189.644479 358.52,189.650003 L358.52,189.650003 Z M316.23,328 C306.217077,328 298.1,319.882923 298.1,309.87 C298.1,299.857077 306.217077,291.74 316.23,291.74 C326.242923,291.74 334.36,299.857077 334.36,309.87 C334.36,319.882923 326.242923,328 316.23,328 Z M271.46,465.510003 C264.125281,465.514045 257.510724,461.098295 254.70198,454.322671 C251.893236,447.547048 253.443727,439.746587 258.630157,434.560157 C263.816587,429.373727 271.617048,427.823236 278.392671,430.63198 C285.168295,433.440724 289.584045,440.055281 289.580003,447.39 C289.574483,457.395114 281.465114,465.504483 271.46,465.510003 L271.46,465.510003 Z M228.26,601.660003 C220.92619,601.660003 214.314702,597.241683 211.509109,590.465739 C208.703517,583.689794 210.256476,575.890974 215.443694,570.706618 C220.630911,565.522262 228.430587,563.973605 235.204983,566.782936 C241.979378,569.592267 246.394045,576.206191 246.390003,583.54 C246.390003,588.347456 244.479562,592.957865 241.07924,596.356312 C237.678918,599.754758 233.067455,601.662653 228.26,601.660003 Z M183.73,738.53 C173.717077,738.53 165.6,730.412923 165.6,720.4 C165.6,710.387077 173.717077,702.27 183.73,702.27 C193.742923,702.27 201.86,710.387077 201.86,720.4 C201.86,730.412923 193.742923,738.53 183.73,738.53 Z M139.73,877.68 C132.39619,877.68 125.784702,873.261683 122.979109,866.485739 C120.173517,859.709794 121.726476,851.910974 126.913694,846.726618 C132.100911,841.542262 139.900587,839.993605 146.674983,842.802936 C153.449378,845.612267 157.864045,852.226191 157.860003,859.56 C157.860003,869.5674 149.7474,877.68 139.74,877.68 L139.73,877.68 Z" id="_FrontTuners_Peg" fill="#999999"></path>
        </g>
    </g>
</svg>