<?xml version="1.0" encoding="UTF-8"?>
<svg width="593px" height="1544px" viewBox="0 0 593 1544" version="1.1" xmlns="http://www.w3.org/2000/svg" xmlns:xlink="http://www.w3.org/1999/xlink">
    <title>GuitarHeadstock</title>
    <g id="Page-1" stroke="none" stroke-width="1" fill="none" fill-rule="evenodd">
        <g id="GuitarHeadstock" fill-rule="nonzero">
            <rect id="Fretboard" fill="#666666" x="129.8" y="1068.22" width="269.28" height="475.02"></rect>
            <rect id="_Guitar_Fret" fill="#CCCCCC" x="129.8" y="1355.98" width="269.28" height="15.96"></rect>
            <rect id="_Guitar_Nut" fill="#CCCCCC" x="130.89" y="1092.16" width="268.19" height="29.26"></rect>
            <path d="M105.56,769.7 L84.83,829 L61.83,821 L82.56,761.67 L105.56,769.7 Z M125.83,625.16 L105.15,684.49 L128.15,692.49 L148.88,633.16 L125.83,625.16 Z M167.21,488.67 L146.48,548 L169.48,556 L190.21,496.67 L167.21,488.67 Z M210.52,352.17 L189.79,411.51 L212.79,419.56 L233.52,360.22 L210.52,352.17 Z M252.2,215.68 L231.47,275 L254.47,283 L275.2,223.67 L252.2,215.68 Z M294.15,81.12 L273.42,140.46 L301.29,150.19 L322.02,90.86 L294.15,81.12 Z" id="_RearTuners_Base" fill="#999999"></path>
            <path d="M112.24,640.1 L119.7,642.71 L111.23,667 L103.77,664.39 L112.24,640.1 Z M145.15,527.85 L152.6,530.45 L161.07,506.21 L153.61,503.61 L145.15,527.85 Z M188.45,391.36 L195.91,393.96 L204.38,369.72 L196.92,367.12 L188.45,391.36 Z M230.15,254.86 L237.61,257.47 L246.08,233.23 L238.62,230.62 L230.15,254.86 Z M272.15,120.3 L279.6,122.91 L288.07,98.67 L280.62,96.06 L272.15,120.3 Z M68.94,776.59 L76.4,779.2 L67.93,803.44 L60.47,800.83 L68.94,776.59 Z" id="_RearTuners_Stem" fill="#CCCCCC"></path>
            <path d="M46.68,724.4 L82.77,737 L46.64,840.41 L10.71,827.86 L10.71,827.86 L10.55,827.8 L10.55,827.8 C-1.68,823.31 -3.56,796.8 6.37,768.35 C16.3,739.9 34.3,720.35 46.66,724.42 L46.68,724.4 Z M89.98,587.92 C77.61,583.83 59.62,603.42 49.68,631.84 C39.74,660.26 41.68,686.84 53.86,691.3 L53.86,691.3 L54.02,691.36 L54.02,691.36 L89.95,703.91 L126.07,600.51 L89.98,587.9 L89.98,587.92 Z M131.36,451.42 L167.45,464 L131.33,567.4 L95.4,554.84 L95.4,554.84 L95.24,554.84 L95.24,554.84 C83.02,550.34 81.13,523.84 91.07,495.38 C101.01,466.92 118.99,447.38 131.36,451.46 L131.36,451.42 Z M174.67,314.93 L210.76,327.54 L174.63,430.94 L138.7,418.38 L138.7,418.38 L138.54,418.33 L138.54,418.33 C126.31,413.83 124.43,387.33 134.36,358.87 C144.29,330.41 162.29,310.87 174.65,314.95 L174.67,314.93 Z M216.35,178.43 L252.44,191 L216.31,294.4 L180.38,281.85 L180.38,281.85 L180.22,281.79 L180.22,281.79 C168,277.3 166.12,250.79 176.05,222.34 C185.98,193.89 203.98,174.34 216.34,178.41 L216.35,178.43 Z M258.35,43.87 L294.44,56.48 L258.32,159.88 L222.39,147.33 L222.39,147.33 L222.23,147.27 L222.23,147.27 C210.01,142.78 208.13,116.27 218.06,87.82 C227.99,59.37 245.99,39.82 258.35,43.89 L258.35,43.87 Z" id="_RearTuners_Key" fill="#999999"></path>
            <path d="M68.88,986.63 C86.8,1003.05 124.52,1018.34 129.8,1068.22 L399.08,1068.22 C396.08,950.72 416.34,887.22 514.26,840.43 C529.81,833.01 541.65,803.03 541.86,785.81 C543.26,669.97 473.42,540.93 466.47,388.63 C464.880333,353.300517 482.553932,319.882185 512.65,301.31 C720.49,173.09 473.65,-139.88 323.57,71.24 C319.65,76.74 313.52,88.5 311.52,95 L47.95,926.2 C44.7103296,936.146319 44.6195303,946.850153 47.69,956.85 C51.75,969.7 60.15,978.67 68.88,986.63 Z" id="_Guitar_headstock" fill="#333333"></path>
            <path d="M396.41,170 C396.41,191.196689 379.226689,208.38 358.03,208.38 C336.833311,208.38 319.65,191.196689 319.65,170 C319.65,148.803311 336.833311,131.62 358.03,131.62 C379.226689,131.62 396.41,148.803311 396.41,170 L396.41,170 Z M315.75,269.999988 C294.554617,270.011046 277.380801,287.201276 277.390001,308.396661 C277.399209,329.592045 294.587947,346.767354 315.783332,346.759995 C336.978716,346.752631 354.15552,329.565385 354.150001,308.37 C354.150001,298.188443 350.103343,288.424335 342.901083,281.227701 C335.698822,274.031067 325.931554,269.992039 315.75,269.999988 Z M270.97,407.52 C249.773311,407.52 232.59,424.703311 232.59,445.9 C232.59,467.096689 249.773311,484.28 270.97,484.28 C292.166689,484.28 309.35,467.096689 309.35,445.9 C309.35,424.703311 292.166689,407.52 270.97,407.52 L270.97,407.52 Z M227.78,543.669999 C212.25583,543.665955 198.25802,553.014377 192.314374,567.355679 C186.370729,581.696982 189.65189,598.206544 200.627706,609.185221 C211.603522,620.163897 228.112229,623.449361 242.45508,617.509452 C256.79793,611.569544 266.15,597.574171 266.15,582.05 C266.15,560.857216 248.972783,543.675522 227.78,543.669999 L227.78,543.669999 Z M183.24,680.539999 C167.716739,680.539999 153.721998,689.890987 147.781504,704.23261 C141.841009,718.574233 145.124639,735.082155 156.101242,746.058758 C167.077845,757.035361 183.585767,760.318991 197.92739,754.378496 C212.269013,748.438002 221.620001,734.443261 221.620001,718.92 C221.622653,708.740178 217.57991,698.976533 210.381688,691.778312 C203.183467,684.58009 193.419822,680.537347 183.24,680.539999 L183.24,680.539999 Z M140.74,818.689988 C119.547224,818.706565 102.378964,835.897205 102.39,857.089984 C102.401047,878.282764 119.587211,895.455504 140.779992,895.449988 C161.972774,895.444469 179.15,878.262782 179.15,857.07 C179.15,846.885791 175.10229,837.119139 167.898154,829.92063 C160.694018,822.72212 150.924206,818.682039 140.74,818.689988 L140.74,818.689988 Z" id="_FrontTuners_Base" fill="#999999"></path>
            <path d="M371.8,146.18 L344.26,146.18 L330.49,170 L344.26,193.85 L371.8,193.85 L385.58,170 L371.8,146.18 Z M329.52,284.52 L301.97,284.52 L288.2,308.37 L301.97,332.23 L329.52,332.23 L343.29,308.37 L329.52,284.52 Z M284.74,422.05 L257.2,422.05 L243.43,445.9 L257.2,469.75 L284.74,469.75 L298.52,445.9 L284.74,422.05 Z M241.55,558.19 L214,558.19 L200.23,582.05 L214,605.9 L241.55,605.9 L255.32,582.05 L241.55,558.19 Z M197.02,695.06 L169.47,695.06 L155.7,718.92 L169.47,742.77 L197.02,742.77 L210.79,718.92 L197.02,695.06 Z M153.52,834.22 L125.97,834.22 L112.2,858.07 L125.97,881.93 L153.52,881.93 L167.29,858.07 L153.52,834.22 Z" id="_FrontTuners_Bolt" fill="#CCCCCC"></path>
            <path d="M376.65,173.88 L376.65,1543.23 L374.91,1543.23 L374.91,173.88 L376.65,173.88 Z M332.65,308.37 L330.9,308.37 L330.9,1543.23 L332.65,1543.23 L332.65,308.37 Z M289.57,445.9 L287.15,445.9 L287.15,1543.23 L289.53,1543.23 L289.57,445.9 Z M244.77,579.9 L241.98,579.9 L241.98,1543.25 L244.77,1543.25 L244.77,579.9 Z M201.41,719.4 L198.41,719.4 L198.41,1543.23 L201.41,1543.23 L201.41,719.4 Z M157.87,858.07 L153.71,858.07 L153.71,1543.23 L157.87,1543.23 L157.87,858.07 Z" id="_Guitar_Strings" fill="#FFFFFF"></path>
            <rect id="_StringTree_Base" fill="#999999" x="324.3" y="709.74" width="59.6" height="33.03"></rect>
            <path d="M355.15,712.27 C347.418014,712.27 341.15,718.538014 341.15,726.27 C341.15,734.001986 347.418014,740.27 355.15,740.27 C362.881986,740.27 369.15,734.001986 369.15,726.27 C369.15,718.538014 362.881986,712.27 355.15,712.27 Z M356.15,727.27 L356.15,738.8 L354.15,738.8 L354.15,727.25 L342.58,727.25 L342.58,725.25 L354.15,725.25 L354.15,713.73 L356.15,713.73 L356.15,725.26 L367.67,725.26 L367.67,727.26 L356.15,727.27 Z" id="_StringTree_Bolt" fill="#CCCCCC"></path>
            <path d="M358.52,188.650003 C351.186191,188.654045 344.572267,184.239378 341.762936,177.464983 C338.953605,170.690587 340.502262,162.890911 345.686618,157.703694 C350.870974,152.516476 358.669794,150.963517 365.445739,153.769109 C372.221683,156.574702 376.64,163.18619 376.64,170.52 C376.64,180.529019 368.529017,188.644479 358.52,188.650003 L358.52,188.650003 Z M316.23,327 C306.217077,327 298.1,318.882923 298.1,308.87 C298.1,298.857077 306.217077,290.74 316.23,290.74 C326.242923,290.74 334.36,298.857077 334.36,308.87 C334.36,318.882923 326.242923,327 316.23,327 Z M271.46,464.510003 C264.125281,464.514045 257.510724,460.098295 254.70198,453.322671 C251.893236,446.547048 253.443727,438.746587 258.630157,433.560157 C263.816587,428.373727 271.617048,426.823236 278.392671,429.63198 C285.168295,432.440724 289.584045,439.055281 289.580003,446.39 C289.574483,456.395114 281.465114,464.504483 271.46,464.510003 L271.46,464.510003 Z M228.26,600.660003 C220.92619,600.660003 214.314702,596.241683 211.509109,589.465739 C208.703517,582.689794 210.256476,574.890974 215.443694,569.706618 C220.630911,564.522262 228.430587,562.973605 235.204983,565.782936 C241.979378,568.592267 246.394045,575.206191 246.390003,582.54 C246.390003,587.347456 244.479562,591.957865 241.07924,595.356312 C237.678918,598.754758 233.067455,600.662653 228.26,600.660003 Z M183.73,737.53 C173.717077,737.53 165.6,729.412923 165.6,719.4 C165.6,709.387077 173.717077,701.27 183.73,701.27 C193.742923,701.27 201.86,709.387077 201.86,719.4 C201.86,729.412923 193.742923,737.53 183.73,737.53 Z M139.73,876.68 C132.39619,876.68 125.784702,872.261683 122.979109,865.485739 C120.173517,858.709794 121.726476,850.910974 126.913694,845.726618 C132.100911,840.542262 139.900587,838.993605 146.674983,841.802936 C153.449378,844.612267 157.864045,851.226191 157.860003,858.56 C157.860003,868.5674 149.7474,876.68 139.74,876.68 L139.73,876.68 Z" id="_FrontTuners_Peg" fill="#999999"></path>
        </g>
    </g>
</svg>