<svg id="Guitar" xmlns="http://www.w3.org/2000/svg" viewBox="0 0 803.86 1538.42"><defs><style>.cls-1{fill:#ccc;}.cls-2{fill:#666;}.cls-3{fill:#999;}.cls-4{fill:#333;}.cls-5{fill:#fff;}</style></defs><path id="tuning_circles" data-name="tuning circles" class="cls-1" d="M119,782.14a59.48,59.48,0,1,1-59.48-59.48A59.48,59.48,0,0,1,119,782.14ZM59.48,583.06A59.48,59.48,0,1,0,119,642.54,59.48,59.48,0,0,0,59.48,583.06Zm0-139.6A59.48,59.48,0,1,0,119,502.94,59.48,59.48,0,0,0,59.48,443.46Zm0-139.6A59.48,59.48,0,1,0,119,363.34,59.48,59.48,0,0,0,59.48,303.86Zm0-139.6A59.48,59.48,0,1,0,119,223.74,59.48,59.48,0,0,0,59.48,164.26Zm0-139.6A59.48,59.48,0,1,0,119,84.14,59.48,59.48,0,0,0,59.48,24.66Z" transform="translate(0 0)"/><path id="tuning_circle_lines" data-name="tuning circle lines" class="cls-1" d="M433.05,87.11H119V80.89H433.05ZM401.68,220.63H119v6.22H401.68Zm-38,139.6H119v6.22h244.7Zm-48.9,136.49H119v6.22h195.8Zm-37.07,139.6H119v6.22H277.69ZM225.58,779H119v6.22H225.58Z" transform="translate(0 0)"/><path id="_Guitar_Fretboard" data-name="&lt;Guitar&gt;Fretboard" class="cls-2" d="M610.51,1357H341.24V1121.43H610.51Zm0,16H341.23v165.47H610.51Zm0-304.72H341.23v23.94H610.51Z" transform="translate(0 0)"/><path id="_Guitar_Frets" data-name="&lt;Guitar&gt; Frets" class="cls-1" d="M610.51,1357v16H341.23v-16m0-235.55H610.51v-29.27H341.24Z" transform="translate(0 0)"/><path id="_RearTuners_Base" data-name="&lt;RearTuners&gt;Base" class="cls-3" d="M317,769.7,296.26,829l-23-8L294,761.65Zm20.27-144.54-20.73,59.33,23,8,20.73-59.33Zm41.38-136.49L357.91,548l23,8,20.73-59.33ZM422,352.17l-20.73,59.34,23,8.05L445,360.22Zm41.67-136.49L442.9,275l23,8,20.73-59.33Zm42-134.56-20.73,59.34,27.87,9.73,20.72-59.33Z" transform="translate(0 0)"/><path id="_RearTuners_Stem" data-name="&lt;RearTuners&gt;Stem" class="cls-1" d="M323.67,640.1l7.46,2.61L322.66,667l-7.46-2.61Zm32.92-112.25,7.45,2.6,8.47-24.24-7.46-2.6Zm43.3-136.49,7.46,2.6,8.47-24.24-7.46-2.6Zm41.68-136.5,7.46,2.61,8.46-24.24L450,230.62Zm42-134.56,7.45,2.61,8.47-24.24L492,96.06ZM280.37,776.59l7.46,2.61-8.47,24.24-7.46-2.61Z" transform="translate(0 0)"/><path id="_RearTuners_Key" data-name="&lt;RearTuners&gt;Key" class="cls-3" d="M258.11,724.4,294.2,737l-36.13,103.4-35.93-12.55h0l-.16-.06h0c-12.22-4.49-14.1-31-4.17-59.45s27.93-48,40.29-43.93Zm43.3-136.48c-12.37-4.09-30.36,15.5-40.3,43.92s-8.05,55,4.18,59.46h0l.17.06h0l35.93,12.55,36.12-103.4-36.09-12.61Zm41.38-136.5L378.88,464l-36.12,103.4-35.93-12.56h0l-.16,0h0c-12.22-4.5-14.11-31-4.17-59.46s27.92-48,40.29-43.92ZM386.1,314.93l36.09,12.61-36.13,103.4-35.93-12.56h0l-.16-.05h0c-12.23-4.5-14.11-31-4.18-59.46s27.93-48,40.29-43.92Zm41.68-136.5L463.87,191l-36.13,103.4-35.93-12.55h0l-.16-.06h0c-12.22-4.49-14.1-31-4.17-59.45s27.93-48,40.29-43.93Zm42-134.56,36.09,12.61-36.12,103.4-35.93-12.55h0l-.16-.06h0c-12.22-4.49-14.11-31-4.17-59.45s27.93-48,40.29-43.93Z" transform="translate(0 0)"/><path id="_Guitar_Headstock" data-name="&lt;Guitar&gt;Headstock" class="cls-4" d="M259.12,956.85a50.81,50.81,0,0,1,.26-30.65L523,95c2-6.52,8.13-18.28,12-23.78C685.08-139.88,931.92,173.09,724.08,301.31a97.46,97.46,0,0,0-46.18,87.32c7,152.3,76.79,281.34,75.39,397.18-.21,17.22-12,47.2-27.6,54.62-97.92,46.75-118.16,110.29-115.18,227.79H341.23c-5.28-49.88-43-65.17-60.92-81.59C271.62,978.67,263.18,969.7,259.12,956.85Z" transform="translate(0 0)"/><path id="_FrontTuners_Base" data-name="&lt;FrontTuners&gt;Base" class="cls-3" d="M607.84,170a38.38,38.38,0,1,1-38.38-38.38A38.38,38.38,0,0,1,607.84,170ZM527.17,270a38.38,38.38,0,1,0,38.38,38.37A38.37,38.37,0,0,0,527.17,270ZM482.4,407.52a38.38,38.38,0,1,0,38.38,38.38A38.38,38.38,0,0,0,482.4,407.52ZM439.21,543.67a38.38,38.38,0,1,0,38.37,38.38A38.38,38.38,0,0,0,439.21,543.67ZM394.67,680.54a38.38,38.38,0,1,0,38.38,38.38A38.37,38.37,0,0,0,394.67,680.54Zm-42.5,138.15a38.38,38.38,0,1,0,38.38,38.38A38.39,38.39,0,0,0,352.17,818.69Z" transform="translate(0 0)"/><path id="_FrontTuners_Bolt" data-name="&lt;FrontTuners&gt;Bolt" class="cls-1" d="M583.23,146.18H555.69L541.92,170l13.77,23.85h27.54L597,170ZM541,284.52H513.4l-13.77,23.85,13.77,23.86H541l13.77-23.86ZM496.17,422.05H468.63L454.86,445.9l13.77,23.85h27.54L510,445.9ZM453,558.19H425.43l-13.77,23.86,13.77,23.85H453l13.77-23.85ZM408.45,695.06H380.9l-13.77,23.86,13.77,23.85h27.55l13.77-23.85ZM365,834.22H337.4l-13.77,23.85,13.77,23.86H365l13.77-23.86Z" transform="translate(0 0)"/><path id="_Guitar_Strings" data-name="&lt;Guitar&gt;Strings" class="cls-5" d="M588.08,173.88V1538.42h-1.74V173.88Zm-44,134h-1.75V1538.42h1.75ZM501,444.94h-2.38V1538.42H501ZM456.2,578.45h-2.79v960h2.79Zm-43.36,139h-3v820.94h3ZM369.3,855.66h-4.17v682.76h4.17Z" transform="translate(0 0)"/><path id="_StringTree_Base" data-name="&lt;StringTree&gt;Base" class="cls-3" d="M592.55,742.77h-54a2.79,2.79,0,0,1-2.79-2.79V712.53a2.79,2.79,0,0,1,2.79-2.79h54a2.79,2.79,0,0,1,2.79,2.79V740A2.79,2.79,0,0,1,592.55,742.77Z" transform="translate(0 0)"/><path id="_StringTree_Bolt" data-name="&lt;StringTree&gt;Bolt" class="cls-1" d="M566.54,712.27a14,14,0,1,0,14,14A14,14,0,0,0,566.54,712.27Zm1,15v11.53h-2V727.25H554v-2h11.53V713.73h2v11.53h11.52v2Z" transform="translate(0 0)"/><path id="_FrontTuners_Peg" data-name="&lt;FrontTuners&gt;Peg" class="cls-3" d="M570,188.65a18.13,18.13,0,1,1,18.12-18.13A18.13,18.13,0,0,1,570,188.65ZM527.66,327a18.13,18.13,0,1,1,18.13-18.13A18.13,18.13,0,0,1,527.66,327ZM482.89,464.51A18.13,18.13,0,1,1,501,446.39,18.13,18.13,0,0,1,482.89,464.51Zm-43.2,136.15a18.13,18.13,0,1,1,18.13-18.12A18.12,18.12,0,0,1,439.69,600.66ZM395.16,737.53a18.13,18.13,0,1,1,18.13-18.13A18.13,18.13,0,0,1,395.16,737.53Zm-44,139.15a18.13,18.13,0,1,1,18.13-18.12A18.12,18.12,0,0,1,351.17,876.68Z" transform="translate(0 0)"/></svg>